# xmcd
#
# Track frame offsets:
#	150
#	14191
#	29925
#	41928
#	56325
#	72314
#	88583
#	104408
#	118146
#	132478
#	146970
#	161885
#
# Disc length: 2366 seconds
# Revision: 0
# Processed by: cddbd v1.5.2PL0 Copyright (c) Steve Scherf et al.
# Submitted via: dBpowerAMP V12.0
#
DISCID=c4093c0c
DTITLE=Ashley Cook - Pictures of Australia
DYEAR=2016
DGENRE=Country
TTITLE0=Pictures of Australia
TTITLE1=A Battle That's Worth Fighting
TTITLE2=Pubs of the Outback
TTITLE3=The Biggest Disappointment
TTITLE4=Legend of Three Moon Creek 
TTITLE5=Overlander Days
TTITLE6=My Campfires My Home
TTITLE7=Beneath The Southern Cross
TTITLE8=Goodtimes at Thangool 
TTITLE9=Legends of the Outback
TTITLE10=Tugging at My Reins
TTITLE11=Travellers Prayer 
EXTD=
EXTT0=
EXTT1=
EXTT2=
EXTT3=
EXTT4=
EXTT5=
EXTT6=
EXTT7=
EXTT8=
EXTT9=
EXTT10=
EXTT11=
PLAYORDER=
